REM DIRINDEX 1\5,1\2\6,1\2\7,1\3\8,1\3\9,1\3\10,1\3\11,1\4\12,1\4\13,1\4\14
REM DIRNAME folder01,folder02,folder03,folder04,folder05,folder06,folder07,folder08,folder09,folder10,folder11,folder12,folder13,folder14
TITLE ""
FILE "5Q_t_016-031.mp3" MP3
  TRACK 01 AUDIO
    TITLE "6:cjc043_0419"
    INDEX 01 00:00:00
  TRACK 02 AUDIO
    TITLE "0:"
    INDEX 01 00:00:60
  TRACK 03 AUDIO
    TITLE "7:cjc043_0420"
    INDEX 01 00:01:48
  TRACK 04 AUDIO
    TITLE "0:"
    INDEX 01 00:04:36
  TRACK 05 AUDIO
    TITLE "6:cjc043_0421"
    INDEX 01 00:05:03
  TRACK 06 AUDIO
    TITLE "0:"
    INDEX 01 00:06:08
  TRACK 07 AUDIO
    TITLE "7:cjc043_0422"
    INDEX 01 00:06:57
  TRACK 08 AUDIO
    TITLE "0:"
    INDEX 01 00:11:44
  TRACK 09 AUDIO
    TITLE "6:cjc043_0423"
    INDEX 01 00:12:22
  TRACK 10 AUDIO
    TITLE "0:"
    INDEX 01 00:13:41
  TRACK 11 AUDIO
    TITLE "7:cjc043_0424"
    INDEX 01 00:14:15
  TRACK 12 AUDIO
    TITLE "0:"
    INDEX 01 00:15:15
  TRACK 13 AUDIO
    TITLE "6:cjc043_0425"
    INDEX 01 00:15:60
  TRACK 14 AUDIO
    TITLE "0:"
    INDEX 01 00:16:71
  TRACK 15 AUDIO
    TITLE "7:cjc043_0426"
    INDEX 01 00:17:47
  TRACK 16 AUDIO
    TITLE "0:"
    INDEX 01 00:19:60
  TRACK 17 AUDIO
    TITLE "6:cjc043_0427"
    INDEX 01 00:20:39
  TRACK 18 AUDIO
    TITLE "0:"
    INDEX 01 00:21:37
  TRACK 19 AUDIO
    TITLE "7:cjc043_0428"
    INDEX 01 00:22:09
  TRACK 20 AUDIO
    TITLE "0:"
    INDEX 01 00:24:53
  TRACK 21 AUDIO
    TITLE "6:cjc043_0429"
    INDEX 01 00:25:21
  TRACK 22 AUDIO
    TITLE "0:"
    INDEX 01 00:26:32
  TRACK 23 AUDIO
    TITLE "7:cjc043_0430"
    INDEX 01 00:27:04
  TRACK 24 AUDIO
    TITLE "0:"
    INDEX 01 00:28:31
  TRACK 25 AUDIO
    TITLE "6:cjc043_0431"
    INDEX 01 00:29:03
  TRACK 26 AUDIO
    TITLE "0:"
    INDEX 01 00:30:08
  TRACK 27 AUDIO
    TITLE "7:cjc043_0432"
    INDEX 01 00:30:57
  TRACK 28 AUDIO
    TITLE "0:"
    INDEX 01 00:34:26
  TRACK 29 AUDIO
    TITLE "6:cjc043_0433"
    INDEX 01 00:34:71
  TRACK 30 AUDIO
    TITLE "0:"
    INDEX 01 00:36:05
  TRACK 31 AUDIO
    TITLE "7:cjc043_0434"
    INDEX 01 00:36:52
  TRACK 32 AUDIO
    TITLE "0:"
    INDEX 01 00:39:52
  TRACK 33 AUDIO
    TITLE "6:cjc043_0435"
    INDEX 01 00:40:28
  TRACK 34 AUDIO
    TITLE "0:"
    INDEX 01 00:41:34
  TRACK 35 AUDIO
    TITLE "7:cjc043_0436"
    INDEX 01 00:42:08
  TRACK 36 AUDIO
    TITLE "0:"
    INDEX 01 00:45:18
  TRACK 37 AUDIO
    TITLE "6:cjc043_0437"
    INDEX 01 00:45:63
  TRACK 38 AUDIO
    TITLE "0:"
    INDEX 01 00:46:58
  TRACK 39 AUDIO
    TITLE "7:cjc043_0438"
    INDEX 01 00:47:32
  TRACK 40 AUDIO
    TITLE "0:"
    INDEX 01 00:49:10
  TRACK 41 AUDIO
    TITLE "6:cjc043_0439"
    INDEX 01 00:49:63
  TRACK 42 AUDIO
    TITLE "0:"
    INDEX 01 00:50:60
  TRACK 43 AUDIO
    TITLE "7:cjc043_0440"
    INDEX 01 00:51:36
  TRACK 44 AUDIO
    TITLE "0:"
    INDEX 01 00:54:54
  TRACK 45 AUDIO
    TITLE "6:cjc043_0441"
    INDEX 01 00:55:36
  TRACK 46 AUDIO
    TITLE "0:"
    INDEX 01 00:56:45
  TRACK 47 AUDIO
    TITLE "7:cjc043_0442"
    INDEX 01 00:57:23
  TRACK 48 AUDIO
    TITLE "0:"
    INDEX 01 01:03:51
  TRACK 49 AUDIO
    TITLE "6:cjc043_0443"
    INDEX 01 01:04:23
  TRACK 50 AUDIO
    TITLE "0:"
    INDEX 01 01:05:38
  TRACK 51 AUDIO
    TITLE "7:cjc043_0444"
    INDEX 01 01:06:16
  TRACK 52 AUDIO
    TITLE "0:"
    INDEX 01 01:09:24
  TRACK 53 AUDIO
    TITLE "6:cjc043_0445"
    INDEX 01 01:09:73
  TRACK 54 AUDIO
    TITLE "0:"
    INDEX 01 01:10:73
  TRACK 55 AUDIO
    TITLE "7:cjc043_0446"
    INDEX 01 01:11:49
  TRACK 56 AUDIO
    TITLE "0:"
    INDEX 01 01:16:11
  TRACK 57 AUDIO
    TITLE "6:cjc043_0447"
    INDEX 01 01:16:63
  TRACK 58 AUDIO
    TITLE "0:"
    INDEX 01 01:17:67
  TRACK 59 AUDIO
    TITLE "7:cjc043_0448"
    INDEX 01 01:18:43
  TRACK 60 AUDIO
    TITLE "0:"
    INDEX 01 01:20:59
  TRACK 61 AUDIO
    TITLE "6:cjc043_0449"
    INDEX 01 01:21:31
  TRACK 62 AUDIO
    TITLE "0:"
    INDEX 01 01:22:25
  TRACK 63 AUDIO
    TITLE "7:cjc043_0450"
    INDEX 01 01:23:01
  TRACK 64 AUDIO
    TITLE "0:"
    INDEX 01 01:25:70
